<?xml version="1.0" encoding="UTF-8"?>
<svg xmlns="http://www.w3.org/2000/svg" viewBox="0 0 500 350">
  <defs>
    <filter id="glow" x="-50%" y="-50%" width="200%" height="200%">
      <feGaussianBlur stdDeviation="6" result="blur"/>
      <feMerge>
        <feMergeNode in="blur"/>
        <feMergeNode in="SourceGraphic"/>
      </feMerge>
    </filter>
    <linearGradient id="sheen" x1="0" y1="0" x2="1" y2="1">
      <stop offset="0%" stop-color="#ffffff" stop-opacity="0.85"/>
      <stop offset="60%" stop-color="#ffffff" stop-opacity="0"/>
    </linearGradient>
  </defs>

  <!-- subtle shadow to pop it up (3D) -->
  <ellipse cx="250" cy="280" rx="170" ry="30" fill="#00000020"/>
  
  <!-- group for tilt -->
  <g transform="translate(140,40) rotate(-18,120,120) skewX(-6)" filter="url(#glow)">
    <!-- head (rounded ring with inner cut) -->
    <circle cx="120" cy="120" r="90" fill="#22c55e"/>
    <circle cx="120" cy="120" r="55" fill="#00000000" stroke="#00000000" />

    <!-- head highlight -->
    <path d="M45,95 a85,85 0 0 1 150,0 a30,30 0 0 1 -150,0" fill="url(#sheen)" />

    <!-- stem + teeth (stylized) -->
    <path d="M175 120 
             L 380 120 
             Q 395 118 400 135 
             L 400 150 
             L 380 150 
             L 380 170 
             L 355 170 
             L 355 150 
             L 330 150 
             L 330 175 
             L 305 175 
             L 305 150 
             L 175 150 Z" fill="#22c55e" />

    <!-- subtle inner lines for 3D bevel -->
    <path d="M175 150 L400 150" stroke="#ffffff66" stroke-width="3"/>
    <path d="M200 135 L390 135" stroke="#00000029" stroke-width="4"/>
  </g>
</svg>
