<svg xmlns="http://www.w3.org/2000/svg" viewBox="0 0 128 128">
  <defs>
    <radialGradient id="bg" cx="50%" cy="50%" r="70%">
      <stop offset="0%" stop-color="#5e2ca5"/>
      <stop offset="100%" stop-color="#35136b"/>
    </radialGradient>
    <linearGradient id="sword" x1="0%" x2="100%" y1="0%" y2="100%">
      <stop offset="0%" stop-color="#7fffd4"/>
      <stop offset="100%" stop-color="#1fb5ff"/>
    </linearGradient>
    <linearGradient id="text" x1="0%" x2="0%" y1="0%" y2="100%">
      <stop offset="0%" stop-color="#ffdf5a"/>
      <stop offset="100%" stop-color="#f0a700"/>
    </linearGradient>
  </defs>
  <rect width="128" height="128" rx="26" fill="url(#bg)"/>
  <g transform="translate(18 20)">
    <rect x="66" y="18" width="12" height="54" rx="5" fill="#3b1b00"/>
    <rect x="64" y="14" width="16" height="24" rx="4" fill="#2e7d32"/>
    <rect x="70" y="38" width="4" height="14" fill="#8d5524"/>
    <path d="M36 0h10l6 18-6 18H36L30 18z" fill="url(#sword)" stroke="#0d3149" stroke-width="3" stroke-linejoin="round"/>
    <path d="M18 18h22v52H18z" fill="#f8f8f8" stroke="#d8d8d8" stroke-width="4" stroke-linejoin="round"/>
    <rect x="18" y="18" width="22" height="16" fill="#f6d5b3"/>
    <rect x="18" y="34" width="22" height="6" fill="#e0c7a2"/>
    <rect x="22" y="22" width="4" height="6" rx="2" fill="#4f2c1d"/>
    <rect x="32" y="22" width="4" height="6" rx="2" fill="#4f2c1d"/>
    <rect x="26" y="28" width="6" height="4" rx="2" fill="#c26d3d"/>
    <path d="M18 16h22l-3-6H21z" fill="#fbead9"/>
    <path d="M18 12h22v6H18z" fill="#d8d8d8"/>
    <path d="M20 50h18l4 12H16z" fill="#f0f0f0"/>
    <path d="M34 50l6 12h-8l-4-12z" fill="#e0e0e0"/>
  </g>
  <g transform="translate(18 86)">
    <rect x="0" y="0" width="92" height="28" rx="14" fill="rgba(0,0,0,0.35)"/>
    <text x="14" y="20" font-family="'Montserrat', 'Segoe UI', sans-serif" font-weight="700" font-size="20" fill="url(#text)">
      ARAB SMP
    </text>
  </g>
</svg>
